HIERARCHY
ROOT Hips
{
	OFFSET -3.958830 18.904000 13.208200
	CHANNELS 6 Xposition Yposition Zposition Zrotation Yrotation Xrotation 
	JOINT LHipJoint
	{
		OFFSET 0.000000 0.000000 0.000000
		CHANNELS 3 Zrotation Yrotation Xrotation
		JOINT LeftUpLeg
		{
			OFFSET 1.800000 -1.400000 0.085000
			CHANNELS 3 Zrotation Yrotation Xrotation
			JOINT LeftLeg
			{
				OFFSET 2.215000 -6.000000 0.000000
				CHANNELS 3 Zrotation Yrotation Xrotation
				JOINT LeftFoot
				{
					OFFSET 2.500000 -6.900000 0.000000
					CHANNELS 3 Zrotation Yrotation Xrotation
					JOINT LeftToeBase
					{
						OFFSET 0.200000 -0.500000 1.950000
						CHANNELS 3 Zrotation Yrotation Xrotation
						End Site
						{
							OFFSET 0.000000 0.000000 0.000000
						}
					}
				}
			}
		}
	}
	JOINT RHipJoint
	{
		OFFSET 0.000000 0.000000 0.000000
		CHANNELS 3 Zrotation Yrotation Xrotation
		JOINT RightUpLeg
		{
			OFFSET -1.800000 -1.400000 0.085000
			CHANNELS 3 Zrotation Yrotation Xrotation
			JOINT RightLeg
			{
				OFFSET -2.215000 -6.000000 0.000000
				CHANNELS 3 Zrotation Yrotation Xrotation
				JOINT RightFoot
				{
					OFFSET -2.500000 -6.900000 0.000000
					CHANNELS 3 Zrotation Yrotation Xrotation
					JOINT RightToeBase
					{
						OFFSET -0.200000 -0.500000 1.950000
						CHANNELS 3 Zrotation Yrotation Xrotation
						End Site
						{
							OFFSET 0.000000 0.000000 0.000000
						}
					}
				}
			}
		}
	}
	JOINT LowerBack
	{
		OFFSET 0.000000 0.000000 0.000000
		CHANNELS 3 Zrotation Yrotation Xrotation
		JOINT Spine
		{
			OFFSET -0.087000 1.940000 -0.288900
			CHANNELS 3 Zrotation Yrotation Xrotation
			JOINT Spine1
			{
				OFFSET 0.000000 1.950000 0.060000
				CHANNELS 3 Zrotation Yrotation Xrotation
				JOINT Neck
				{
					OFFSET 0.000000 0.000000 0.000000
					CHANNELS 3 Zrotation Yrotation Xrotation
					JOINT Neck1
					{
						OFFSET 0.000000 1.600000 0.340000
						CHANNELS 3 Zrotation Yrotation Xrotation
						JOINT Head
						{
							OFFSET 0.000000 1.667000 -0.240000
							CHANNELS 3 Zrotation Yrotation Xrotation
							End Site
							{
								OFFSET 0.000000 0.000000 0.000000
							}
						}
					}
				}
				JOINT LeftShoulder
				{
					OFFSET 0.000000 0.000000 0.000000
					CHANNELS 3 Zrotation Yrotation Xrotation
					JOINT LeftArm
					{
						OFFSET 2.700000 1.550000 -0.730000
						CHANNELS 3 Zrotation Yrotation Xrotation
						JOINT LeftForeArm
						{
							OFFSET 5.450000 0.000000 0.000000
							CHANNELS 3 Zrotation Yrotation Xrotation
							JOINT LeftHand
							{
								OFFSET 3.450000 0.000000 0.000000
								CHANNELS 3 Zrotation Yrotation Xrotation
								JOINT LeftHandIndex1
								{
									OFFSET 0.750000 0.000000 0.000000
									CHANNELS 3 Zrotation Yrotation Xrotation
									End Site
									{
										OFFSET 0.000000 0.000000 0.000000
									}
								}
							}
						}
					}
				}
				JOINT RightShoulder
				{
					OFFSET 0.000000 0.000000 0.000000
					CHANNELS 3 Zrotation Yrotation Xrotation
					JOINT RightArm
					{
						OFFSET -2.700000 1.550000 -0.730000
						CHANNELS 3 Zrotation Yrotation Xrotation
						JOINT RightForeArm
						{
							OFFSET -5.450000 0.000000 0.000000
							CHANNELS 3 Zrotation Yrotation Xrotation
							JOINT RightHand
							{
								OFFSET -3.450000 0.000000 0.000000
								CHANNELS 3 Zrotation Yrotation Xrotation
								JOINT RightHandIndex1
								{
									OFFSET -0.750000 0.000000 0.000000
									CHANNELS 3 Zrotation Yrotation Xrotation
									End Site
									{
										OFFSET 0.000000 0.000000 0.000000
									}
								}
							}
						}
					}
				}
			}
		}
	}
}
MOTION
Frames: 7
Frame Time: 0.016667
0.497110 17.324370 -5.255250 -5.054199 30.650276 -7.532905 -15.525992 12.748627 3.069101 0.310567 -8.819163 -20.366248 3.292246 5.091097 46.173647 -0.691977 7.791494 1.759991 0.503490 0.248900 0.204490 18.202767 -8.076049 5.320960 -17.423676 4.792410 -51.318574 6.261119 -29.950312 87.311751 -3.504561 -15.577440 -0.526962 0.185230 0.378400 0.502690 -3.308595 -4.562646 -9.545473 11.447217 -9.204599 36.546621 -6.287261 -5.077193 7.725918 5.320966 1.026253 -16.548271 -4.471152 -1.584929 53.062169 5.044560 -3.875140 -37.778610 -38.346760 -32.698253 8.603681 -29.406039 -18.049770 -13.085012 -7.898961 -41.010601 -1.548920 -3.045894 2.715194 1.545550 -0.150680 0.583510 0.293290 26.916928 32.870422 11.493003 44.408851 8.206426 -13.580975 -9.697820 29.313996 -3.678350 1.497181 -0.707566 -0.456080 0.801530 0.286600 -0.183230 
0.514700 17.328250 -5.225330 -4.614146 30.506952 -7.815653 -15.548197 12.824308 3.054807 0.290232 -8.829190 -19.265988 2.515819 5.379254 45.865625 -0.711936 7.856675 1.741736 0.467130 0.196530 0.189760 18.175392 -8.049047 5.314120 -16.654276 4.677634 -51.951130 5.705562 -29.318072 87.365722 -3.467044 -15.483120 -0.511760 0.165320 0.399730 0.505950 -3.218564 -4.740625 -9.541291 10.366938 -9.051853 37.369029 -5.609493 -5.296633 7.779083 5.052690 0.936698 -16.811443 -4.938277 -1.473464 53.327774 4.932230 -3.804970 -37.876900 -37.614673 -33.066916 8.716144 -29.653441 -18.888953 -13.416778 -7.081591 -42.255238 -1.936383 -3.064924 2.679367 1.568150 -0.140220 0.572730 0.272600 26.789260 33.066736 11.727058 44.489419 7.343547 -13.901260 -9.893081 29.524579 -3.678917 1.472206 -0.676646 -0.482880 0.821010 0.327030 -0.197380 
0.556940 17.344900 -5.158130 -4.661380 29.629774 -8.851079 -15.541141 13.072971 2.891710 1.391284 -7.971601 -16.608952 0.909141 5.996988 43.686954 -0.796379 7.773004 1.777261 0.395540 0.085880 0.164150 18.139385 -8.146451 5.275395 -13.774234 5.477133 -52.351280 4.693048 -27.632797 87.032032 -3.368293 -15.213648 -0.459638 0.122290 0.442890 0.504460 -3.188373 -4.883604 -9.433606 9.700814 -9.099638 38.584674 -5.059727 -5.316181 7.782723 4.703970 0.435358 -17.010780 -6.439968 -1.020988 53.734165 5.371280 -3.911450 -37.706090 -36.636488 -33.267368 8.538921 -29.963836 -20.324434 -13.380232 -6.711856 -43.765103 -2.156295 -3.119751 2.612716 1.598000 -0.121300 0.534580 0.224340 26.640265 33.098049 12.256230 43.946022 5.548831 -13.763033 -9.313191 28.839483 -3.231580 1.453462 -0.617392 -0.532170 0.848080 0.404010 -0.222370 
0.606670 17.397310 -5.062690 -4.721314 28.433094 -10.027620 -15.496366 13.345381 2.750029 3.117453 -6.893645 -13.401169 -1.442527 6.850102 40.635391 -0.848236 7.660629 1.834054 0.340690 0.018550 0.110270 18.120304 -8.399066 5.099298 -9.493312 6.354347 -51.616602 2.387956 -24.594419 86.320254 -3.220839 -14.670353 -0.334257 0.094590 0.502390 0.506790 -3.263912 -4.861454 -9.271520 9.378452 -9.591787 39.112323 -5.050563 -5.520335 8.643073 4.225647 -0.470884 -17.777830 -8.995607 0.197918 54.726727 6.574430 -4.064180 -36.831480 -34.966948 -34.006885 8.777052 -30.168216 -21.963743 -13.568358 -4.018807 -44.605316 -3.296433 -3.160460 2.539167 1.606250 -0.100980 0.507580 0.211840 26.054167 33.824225 12.969867 43.551891 4.356969 -12.858090 -7.885987 26.832619 -2.479231 1.457255 -0.568694 -0.559450 0.882440 0.462190 -0.211360 
0.665150 17.452940 -4.933070 -4.125980 27.123178 -10.141747 -15.486230 13.554519 2.676415 4.382085 -5.748420 -10.410351 -3.905865 7.695332 36.997757 -0.836732 7.508885 1.938594 0.291700 -0.030260 0.051420 18.092030 -8.539477 4.969789 -5.576179 7.175366 -50.987162 0.382459 -21.289133 84.329341 -3.006498 -13.930302 -0.126034 0.067450 0.576180 0.489800 -3.232943 -4.950457 -9.160262 8.427126 -9.247714 38.161268 -4.125014 -5.570382 9.393527 3.675340 -1.588094 -18.028232 -11.674239 1.333977 53.963595 7.144250 -4.348340 -34.887680 -33.174733 -33.800109 8.751106 -31.983156 -23.481607 -12.895630 -2.094445 -44.943608 -4.143270 -3.221892 2.475816 1.560340 -0.060290 0.455380 0.226510 25.671600 33.778214 13.625587 43.012261 2.546850 -12.028659 -6.158121 25.206241 -1.843711 1.477128 -0.549854 -0.573020 0.912190 0.484230 -0.180850 
0.728770 17.518140 -4.795300 -3.066594 26.236563 -9.533456 -15.493840 13.712290 2.695294 4.587777 -4.901738 -7.780379 -5.548334 8.113291 34.041530 -0.762092 7.364048 2.035510 0.243990 -0.064150 -0.028440 18.058776 -8.679037 4.784250 -2.139315 7.331998 -49.611555 -0.587126 -18.365069 80.032195 -2.721012 -12.936563 0.129416 0.035980 0.631670 0.492330 -3.171531 -5.050444 -9.051405 7.164613 -8.917841 36.483737 -3.213694 -5.825303 9.516647 3.140538 -2.509829 -17.626600 -13.600321 1.991650 52.158992 7.678640 -4.743770 -32.554950 -31.247140 -32.649234 8.465419 -34.836267 -24.569050 -11.534225 -0.796990 -45.102551 -4.707625 -3.290628 2.493637 1.479330 -0.021270 0.405300 0.248170 25.099282 32.604632 13.881646 42.973394 0.806382 -11.465713 -4.185642 24.478616 -1.375867 1.520989 -0.572138 -0.550410 0.885830 0.493290 -0.132810 
0.778260 17.586400 -4.647000 -1.518011 24.624100 -8.297557 -15.521055 13.829926 2.785580 4.441130 -4.031643 -5.458354 -7.518196 8.631917 30.899617 -0.699589 7.304738 2.124050 0.154570 -0.168010 -0.136780 18.014155 -8.801128 4.584124 1.247994 7.546706 -47.388139 -1.145353 -14.840032 72.629846 -2.268044 -11.365636 0.565395 -0.015960 0.731010 0.482750 -3.043291 -5.132495 -8.950365 5.138696 -7.899267 34.413288 -2.148603 -5.517177 8.853407 2.434543 -3.114683 -16.640715 -14.503644 2.380505 49.866544 8.650630 -5.105390 -29.401500 -29.432237 -30.584065 7.656046 -38.368291 -25.087970 -9.429548 -1.153423 -45.499025 -4.585200 -3.409808 2.499507 1.408800 0.044890 0.311310 0.269580 24.977260 30.395803 13.893112 43.142318 -1.232684 -11.418642 -1.765611 24.934772 -1.010031 1.533088 -0.591585 -0.575440 0.873960 0.529280 -0.100990 
